<?xml version="1.0" encoding="UTF-8"?>
<svg xmlns="http://www.w3.org/2000/svg" width="143.063" height="105.316" viewBox="0 0 143.063 105.316">
  <g id="devices-cover" transform="translate(-479.158 -4926.564)">
    <path id="Polygon_86" data-name="Polygon 86" d="M25.33,0a8,8,0,0,1,6.933,4.008l5.378,9.341a8,8,0,0,1,0,7.984l-5.378,9.341a8,8,0,0,1-6.933,4.008H14.61a8,8,0,0,1-6.933-4.008L2.3,21.333a8,8,0,0,1,0-7.984L7.677,4.008A8,8,0,0,1,14.61,0Z" transform="translate(582.281 4997.199)" fill="#e6f3fb"></path>
    <path id="Polygon_87" data-name="Polygon 87" d="M18.136,0l6.045,10.5L18.136,21H6.045L0,10.5,6.045,0Z" transform="translate(479.158 4944.699)" fill="#e6f3fb"></path>
    <path id="Polygon_85" data-name="Polygon 85" d="M81.116,0a8,8,0,0,1,6.933,4.008l23.974,41.634a8,8,0,0,1,0,7.984L88.049,95.26a8,8,0,0,1-6.933,4.008H33.205a8,8,0,0,1-6.933-4.008L2.3,53.626a8,8,0,0,1,0-7.984L26.272,4.008A8,8,0,0,1,33.205,0Z" transform="translate(498.34 4926.564)" fill="#e1e2e8"></path>
    <rect id="Rectangle_468" data-name="Rectangle 468" width="14" height="23" transform="translate(535 4971.539)" fill="#746b6b" opacity="0.42"></rect>
    <path id="Path_642" data-name="Path 642" d="M0,0H35V29H9L7.887,14.014,0,12.333Z" transform="translate(541 4957.539)" fill="#746b6b" opacity="0.42"></path>
    <g id="noun_responsive_1791651" transform="translate(533.102 4951.199)">
      <path id="Path_407" data-name="Path 407" d="M12.6,52h-7A5.6,5.6,0,0,1,0,46.4V29.6A5.6,5.6,0,0,1,5.6,24h7a5.6,5.6,0,0,1,5.6,5.6V46.4A5.6,5.6,0,0,1,12.6,52Zm-7-25.2a2.8,2.8,0,0,0-2.8,2.8V46.4a2.8,2.8,0,0,0,2.8,2.8h7a2.8,2.8,0,0,0,2.8-2.8V29.6a2.8,2.8,0,0,0-2.8-2.8Z" transform="translate(0 -6)" fill="#746b6b"></path>
      <path id="Path_408" data-name="Path 408" d="M12.4,56.812a1.211,1.211,0,0,1-.273,0,1.26,1.26,0,0,1-.266-.077,1.568,1.568,0,0,1-.238-.133,1.512,1.512,0,0,1-.385-.385,1.6,1.6,0,0,1-.133-.238,1.26,1.26,0,0,1-.077-.266,1.344,1.344,0,0,1,0-.546A1.26,1.26,0,0,1,11.1,54.9a1.6,1.6,0,0,1,.133-.238,1.512,1.512,0,0,1,.385-.385,1.6,1.6,0,0,1,.238-.133,1.26,1.26,0,0,1,.266-.077,1.4,1.4,0,0,1,.546,0,1.26,1.26,0,0,1,.266.077,1.6,1.6,0,0,1,.238.133,1.512,1.512,0,0,1,.385.385,1.141,1.141,0,0,1,.133.238,1.26,1.26,0,0,1,.077.266,1.344,1.344,0,0,1,0,.546,1.26,1.26,0,0,1-.077.266,1.141,1.141,0,0,1-.133.238,1.512,1.512,0,0,1-.385.385,1.561,1.561,0,0,1-.238.133,1.26,1.26,0,0,1-.266.077,1.211,1.211,0,0,1-.273,0Z" transform="translate(-3.3 -15.012)" fill="#746b6b"></path>
      <path id="Path_409" data-name="Path 409" d="M41.6,37.6H19.2V34.8H41.6A2.8,2.8,0,0,0,44.4,32V9.6a2.8,2.8,0,0,0-2.8-2.8h-28a2.8,2.8,0,0,0-2.8,2.8v9.8H8V9.6A5.6,5.6,0,0,1,13.6,4h28a5.6,5.6,0,0,1,5.6,5.6V32A5.6,5.6,0,0,1,41.6,37.6Z" transform="translate(-2.4 0)" fill="#746b6b"></path>
      <path id="Path_410" data-name="Path 410" d="M35.4,44.788a1.4,1.4,0,0,1-1.4-1.4,1.2,1.2,0,0,1,0-.273,1.211,1.211,0,0,1,.21-.5,1.225,1.225,0,0,1,.168-.21,1.4,1.4,0,0,1,1.3-.413,1.539,1.539,0,0,1,.259.077,1.4,1.4,0,0,1,.245.133.987.987,0,0,1,.21.175,1.416,1.416,0,0,1-.987,2.415Z" transform="translate(-10.197 -11.388)" fill="#746b6b"></path>
      <path id="Path_411" data-name="Path 411" d="M39.4,58.8h-14a1.4,1.4,0,0,1,0-2.8h14a1.4,1.4,0,0,1,0,2.8Z" transform="translate(-7.2 -15.6)" fill="#746b6b"></path>
      <path id="Path_412" data-name="Path 412" d="M41.4,56.4A1.4,1.4,0,0,1,40,55V49.4a1.4,1.4,0,1,1,2.8,0V55A1.4,1.4,0,0,1,41.4,56.4Z" transform="translate(-12 -13.2)" fill="#746b6b"></path>
      <path id="Path_413" data-name="Path 413" d="M29.4,56.4A1.4,1.4,0,0,1,28,55V49.4a1.4,1.4,0,1,1,2.8,0V55A1.4,1.4,0,0,1,29.4,56.4Z" transform="translate(-8.4 -13.2)" fill="#746b6b"></path>
    </g>
  </g>
</svg>
