<?xml version="1.0" encoding="UTF-8"?>
<svg xmlns="http://www.w3.org/2000/svg" width="144.061" height="109.767" viewBox="0 0 144.061 109.767">
  <g id="pharma-cover" transform="translate(-492.969 -4926.564)">
    <path id="Polygon_88" data-name="Polygon 88" d="M25.33,0a8,8,0,0,1,6.933,4.008l5.378,9.341a8,8,0,0,1,0,7.984l-5.378,9.341a8,8,0,0,1-6.933,4.008H14.61a8,8,0,0,1-6.933-4.008L2.3,21.333a8,8,0,0,1,0-7.984L7.677,4.008A8,8,0,0,1,14.61,0Z" transform="translate(597.09 4941.518)" fill="#e6f3fb"></path>
    <path id="Polygon_89" data-name="Polygon 89" d="M18.136,0l6.045,10.5L18.136,21H6.045L0,10.5,6.045,0Z" transform="translate(492.969 5015.334)" fill="#e6f3fb"></path>
    <path id="Polygon_85" data-name="Polygon 85" d="M81.116,0a8,8,0,0,1,6.933,4.008l23.974,41.634a8,8,0,0,1,0,7.984L88.049,95.26a8,8,0,0,1-6.933,4.008H33.205a8,8,0,0,1-6.933-4.008L2.3,53.626a8,8,0,0,1,0-7.984L26.272,4.008A8,8,0,0,1,33.205,0Z" transform="translate(498.34 4926.564)" fill="#e1e2e8"></path>
    <path id="Path_643" data-name="Path 643" d="M32,35.09a1,1,0,0,1-1-1V19.8a1,1,0,0,1,1-1,7.26,7.26,0,0,0,7.24-7.26,1,1,0,0,1,1-1H60a1,1,0,0,1,1,1c0,2.79-2.5,5.1-5.74,5.46a5.29,5.29,0,0,1-1.94,3,7.13,7.13,0,0,1-3.69,1.48,5.29,5.29,0,0,1-1.94,3A7.13,7.13,0,0,1,44,26a5.24,5.24,0,0,1-1.94,3,7,7,0,0,1-3.35,1.44,5.31,5.31,0,0,1-2,3.08A7.74,7.74,0,0,1,32,35.09Z" transform="translate(523.5 4946.199)" fill="#746b6b" opacity="0.42"></path>
    <path id="Path_644" data-name="Path 644" d="M60,35.091a1,1,0,0,0,1-1V19.8a1,1,0,0,0-1-1,7.26,7.26,0,0,1-7.24-7.26,1,1,0,0,0-1-1H32a1,1,0,0,0-1,1c0,2.79,2.5,5.1,5.74,5.46a5.29,5.29,0,0,0,1.94,3,7.13,7.13,0,0,0,3.69,1.48,5.29,5.29,0,0,0,1.94,3A7.13,7.13,0,0,0,48,26a5.24,5.24,0,0,0,1.94,3,7,7,0,0,0,3.35,1.44,5.31,5.31,0,0,0,2,3.08A7.74,7.74,0,0,0,60,35.091Z" transform="translate(495.5 4946.199)" fill="#746b6b" opacity="0.42"></path>
    <g id="Layer_2" data-name="Layer 2" transform="translate(523.5 4946.197)">
      <path id="Path_595" data-name="Path 595" d="M37.46,45a1,1,0,0,1-.74-1.67c.24-.27.69-1,.49-1.43-.09-.2-.78-1.22-5.28-1.22-3.36,0-5.34-.79-6.05-2.41-1.07-2.45,1.6-5.43,1.91-5.77a1,1,0,0,1,1.47,1.36c-.69.75-2,2.62-1.55,3.61.34.77,1.88,1.21,4.22,1.21,4.06,0,6.39.79,7.11,2.41s-.67,3.4-.84,3.59A1,1,0,0,1,37.46,45Z" fill="#746b6b"></path>
      <path id="Path_596" data-name="Path 596" d="M36.78,38.76a1,1,0,0,1-.4-1.91c1-.43.91-.83.88-1a2.69,2.69,0,0,0-1.78-1.65,1,1,0,1,1,0-2,4.47,4.47,0,0,1,3.74,3.25c.13.64.19,2.25-2,3.21A.91.91,0,0,1,36.78,38.76Z" fill="#746b6b"></path>
      <path id="Path_597" data-name="Path 597" d="M32,35.09a1,1,0,0,1-1-1V19.8a1,1,0,0,1,1-1,7.26,7.26,0,0,0,7.24-7.26,1,1,0,0,1,1-1H60a1,1,0,0,1,1,1c0,2.79-2.5,5.1-5.74,5.46a5.29,5.29,0,0,1-1.94,3,7.13,7.13,0,0,1-3.69,1.48,5.29,5.29,0,0,1-1.94,3A7.13,7.13,0,0,1,44,26a5.24,5.24,0,0,1-1.94,3,7,7,0,0,1-3.35,1.44,5.31,5.31,0,0,1-2,3.08A7.74,7.74,0,0,1,32,35.09Zm1-14.34V33a5.49,5.49,0,0,0,2.46-1,3.39,3.39,0,0,0,1.25-1.72,1,1,0,0,1,.75-1.67,5.44,5.44,0,0,0,3.36-1.1A3.09,3.09,0,0,0,42.1,25.1a1,1,0,0,1,1-1A5.37,5.37,0,0,0,46.45,23a3.07,3.07,0,0,0,1.28-2.41,1,1,0,0,1,1-1,5.37,5.37,0,0,0,3.35-1.1,3.1,3.1,0,0,0,1.28-2.41,1,1,0,0,1,1-1,4.67,4.67,0,0,0,4.45-2.51H41.19A9.27,9.27,0,0,1,33,20.75Z" fill="#746b6b"></path>
      <path id="Path_598" data-name="Path 598" d="M54.36,17.05H51.54a1,1,0,0,1,0-2h2.82a1,1,0,0,1,0,2Z" fill="#746b6b"></path>
      <path id="Path_599" data-name="Path 599" d="M48.73,21.56H45.91a1,1,0,0,1,0-2h2.82a1,1,0,0,1,0,2Z" fill="#746b6b"></path>
      <path id="Path_600" data-name="Path 600" d="M43.1,26.07H40.28a1,1,0,1,1,0-2H43.1a1,1,0,1,1,0,2Z" fill="#746b6b"></path>
      <path id="Path_601" data-name="Path 601" d="M37.46,30.58H35a1,1,0,0,1,0-2h2.47a1,1,0,0,1,0,2Z" fill="#746b6b"></path>
      <path id="Path_602" data-name="Path 602" d="M32,35.09h-.17a7.35,7.35,0,0,1-4.6-1.54,5.2,5.2,0,0,1-1.94-3.07A7.08,7.08,0,0,1,21.93,29,5.27,5.27,0,0,1,20,26a7.12,7.12,0,0,1-3.7-1.49,5.27,5.27,0,0,1-1.93-3A7.12,7.12,0,0,1,10.67,20a5.27,5.27,0,0,1-1.93-3A7.12,7.12,0,0,1,5,15.51a5.09,5.09,0,0,1-2-4,1,1,0,0,1,1-1H23.76a1,1,0,0,1,1,1A7.26,7.26,0,0,0,32,18.8a1,1,0,0,1,1,1V34.09A1,1,0,0,1,32,35.09Zm-4.72-4.84A3.39,3.39,0,0,0,28.48,32,5.23,5.23,0,0,0,31,33V20.75a9.27,9.27,0,0,1-8.19-8.21H5.19A3.45,3.45,0,0,0,6.27,14a5.49,5.49,0,0,0,3.37,1.1,1,1,0,0,1,1,1,3.1,3.1,0,0,0,1.28,2.41,5.37,5.37,0,0,0,3.35,1.1,1,1,0,0,1,1,1A3.07,3.07,0,0,0,17.55,23a5.37,5.37,0,0,0,3.35,1.1,1,1,0,0,1,1,1,3.09,3.09,0,0,0,1.28,2.41,5.44,5.44,0,0,0,3.36,1.1.977.977,0,0,1,.74,1.64Z" fill="#746b6b"></path>
      <path id="Path_603" data-name="Path 603" d="M12.46,17.05H9.64a1,1,0,0,1,0-2h2.82a1,1,0,0,1,0,2Z" fill="#746b6b"></path>
      <path id="Path_604" data-name="Path 604" d="M18.09,21.56H15.27a1,1,0,1,1,0-2h2.82a1,1,0,0,1,0,2Z" fill="#746b6b"></path>
      <path id="Path_605" data-name="Path 605" d="M23.72,26.07H20.9a1,1,0,0,1,0-2h2.82a1,1,0,1,1,0,2Z" fill="#746b6b"></path>
      <path id="Path_606" data-name="Path 606" d="M29,30.58H26.54a1,1,0,0,1,0-2H29a1,1,0,0,1,0,2Z" fill="#746b6b"></path>
      <path id="Path_607" data-name="Path 607" d="M35.84,49.23a1.006,1.006,0,0,1-.73-1.68,1,1,0,0,0,.27-.56s-.42-.64-3.4-.64c-1.81,0-4.3-.19-5-1.82-.6-1.46.75-2.86.91-3a1,1,0,1,1,1.41,1.42,1.51,1.51,0,0,0-.47.83s.39.58,3.12.58c3,0,4.68.59,5.23,1.84a2.69,2.69,0,0,1-.63,2.72A1,1,0,0,1,35.84,49.23Z" fill="#746b6b"></path>
      <path id="Path_608" data-name="Path 608" d="M34.58,52.48a.94.94,0,0,1-.63-.23,1,1,0,0,1-.3-1.12A6.19,6.19,0,0,0,32,51c-1.76,0-2.93-.46-3.5-1.37a2.55,2.55,0,0,1-.1-2.34,1,1,0,1,1,1.81.86c0,.06-.1.3,0,.42S30.54,49,32,49c1.28,0,3,.13,3.6,1.31a1.78,1.78,0,0,1-.27,1.84A1,1,0,0,1,34.58,52.48Z" fill="#746b6b"></path>
      <path id="Path_609" data-name="Path 609" d="M32,16.72a5.17,5.17,0,1,1,5.17-5.17A5.17,5.17,0,0,1,32,16.72Zm0-8.34a3.17,3.17,0,1,0,3.17,3.17A3.17,3.17,0,0,0,32,8.38Z" fill="#746b6b"></path>
      <path id="Path_610" data-name="Path 610" d="M32,57.62a1,1,0,0,1-1-1V15.71a1,1,0,0,1,2,0V56.62A1,1,0,0,1,32,57.62Z" fill="#746b6b"></path>
    </g>
  </g>
</svg>
