<?xml version="1.0" encoding="UTF-8"?>
<svg xmlns="http://www.w3.org/2000/svg" width="131.592" height="105.791" viewBox="0 0 131.592 105.791">
  <g id="technologies-cover" transform="translate(-493.16 -4926.539)">
    <path id="Polygon_90" data-name="Polygon 90" d="M25.33,0a8,8,0,0,1,6.933,4.008l5.378,9.341a8,8,0,0,1,0,7.984l-5.378,9.341a8,8,0,0,1-6.933,4.008H14.61a8,8,0,0,1-6.933-4.008L2.3,21.333a8,8,0,0,1,0-7.984L7.677,4.008A8,8,0,0,1,14.61,0Z" transform="translate(493.16 4932.518)" fill="#e6f3fb"></path>
    <path id="Polygon_91" data-name="Polygon 91" d="M18.136,0l6.045,10.5L18.136,21H6.045L0,10.5,6.045,0Z" transform="translate(600.57 5011.332)" fill="#e6f3fb"></path>
    <path id="Polygon_85" data-name="Polygon 85" d="M81.116,0a8,8,0,0,1,6.933,4.008l23.974,41.634a8,8,0,0,1,0,7.984L88.049,95.26a8,8,0,0,1-6.933,4.008H33.205a8,8,0,0,1-6.933-4.008L2.3,53.626a8,8,0,0,1,0-7.984L26.272,4.008A8,8,0,0,1,33.205,0Z" transform="translate(498 4926.539)" fill="#e1e2e8"></path>
    <rect id="Rectangle_469" data-name="Rectangle 469" width="16" height="17" transform="translate(547 4967.539)" fill="#746b6b" opacity="0.42"></rect>
    <g id="noun_Technology_3092021" transform="translate(529.201 4947.771)">
      <path id="Path_635" data-name="Path 635" d="M45.484,24.662a3.7,3.7,0,0,0-3.541,2.656H35.6V23.236H39.09a1.092,1.092,0,0,0,1.082-1.082V18.023a3.455,3.455,0,0,0,1.574-.934,3.685,3.685,0,0,0,1.082-2.607,3.738,3.738,0,1,0-4.82,3.541v3.049H35.254a4,4,0,0,0-3.689-2.459H26.844V14.679a3.738,3.738,0,1,0-2.164,0v3.934H19.959a4,4,0,0,0-3.689,2.459H13.516V18.023a3.738,3.738,0,1,0-2.164,0v4.131a1.092,1.092,0,0,0,1.082,1.082h3.492v4.082H9.779a3.738,3.738,0,1,0,0,2.164h6.344v4.082H12.631a1.092,1.092,0,0,0-1.082,1.082v4.18a3.738,3.738,0,1,0,2.164,0v-3.1h2.754a4,4,0,0,0,3.689,2.459h4.721v3.934a3.738,3.738,0,1,0,2.164,0V38.187h4.721a4,4,0,0,0,3.689-2.459H38.2v3.1a3.738,3.738,0,1,0,2.164,0v-4.18a1.092,1.092,0,0,0-1.082-1.082H35.8V29.482h6.344A3.717,3.717,0,0,0,49.418,28.4,4.009,4.009,0,0,0,45.484,24.662Zm-7.967-10.18a1.574,1.574,0,1,1,3.148,0,1.791,1.791,0,0,1-.443,1.131,1.558,1.558,0,0,1-1.131.443A1.585,1.585,0,0,1,37.516,14.482Zm-13.23-3.344a1.574,1.574,0,1,1,1.574,1.574A1.524,1.524,0,0,1,24.287,11.138ZM11.008,14.482a1.574,1.574,0,1,1,1.574,1.574A1.585,1.585,0,0,1,11.008,14.482ZM6.238,29.974A1.585,1.585,0,0,1,4.664,28.4a1.618,1.618,0,0,1,1.574-1.574,1.574,1.574,0,1,1,0,3.148Zm7.967,12.3A1.574,1.574,0,1,1,12.631,40.7,1.618,1.618,0,0,1,14.2,42.269Zm13.23,3.3a1.585,1.585,0,0,1-1.574,1.574,1.554,1.554,0,0,1-1.574-1.574,1.585,1.585,0,0,1,1.574-1.574A1.524,1.524,0,0,1,27.434,45.564Zm13.279-3.3A1.574,1.574,0,1,1,39.139,40.7,1.618,1.618,0,0,1,40.713,42.269ZM33.484,34.1a1.868,1.868,0,0,1-1.869,1.869H20.107A1.868,1.868,0,0,1,18.238,34.1V22.6a1.868,1.868,0,0,1,1.869-1.869H31.664A1.868,1.868,0,0,1,33.533,22.6V34.1Zm12-4.131A1.585,1.585,0,0,1,43.91,28.4a1.618,1.618,0,0,1,1.574-1.574,1.574,1.574,0,0,1,0,3.148Z" transform="translate(0 -0.002)" fill="#746b6b"></path>
      <g id="noun_code_2732996" transform="translate(19.215 8.974)">
        <path id="Path_637" data-name="Path 637" d="M76.819,33.932a.892.892,0,0,1-.632-.264l-2.723-2.723a.907.907,0,1,1,1.282-1.282l2.723,2.723a.912.912,0,0,1,0,1.282A.9.9,0,0,1,76.819,33.932Z" transform="translate(-65.263 -13.596)" fill="#746b6b"></path>
        <path id="Path_638" data-name="Path 638" d="M74.2,49.332a.892.892,0,0,1-.632-.264.912.912,0,0,1,0-1.282l2.723-2.723a.907.907,0,1,1,1.282,1.282l-2.741,2.723A.892.892,0,0,1,74.2,49.332Z" transform="translate(-65.346 -26.29)" fill="#746b6b"></path>
        <path id="Path_639" data-name="Path 639" d="M2,33.932a.892.892,0,0,1-.632-.264.912.912,0,0,1,0-1.282l2.705-2.723a.907.907,0,1,1,1.282,1.282L2.628,33.651A.843.843,0,0,1,2,33.932Z" transform="translate(-0.082 -13.596)" fill="#746b6b"></path>
        <path id="Path_640" data-name="Path 640" d="M4.619,49.332a.892.892,0,0,1-.632-.264L1.264,46.346a.907.907,0,1,1,1.282-1.282l2.723,2.723a.912.912,0,0,1,0,1.282A.9.9,0,0,1,4.619,49.332Z" transform="translate(0 -26.29)" fill="#746b6b"></path>
      </g>
    </g>
  </g>
</svg>
